<?xml version="1.0" encoding="UTF-8" standalone="no"?>
<!-- Generator: Adobe Illustrator 19.2.1, SVG Export Plug-In . SVG Version: 6.00 Build 0)  -->

<svg
   xmlns:dc="http://purl.org/dc/elements/1.1/"
   xmlns:cc="http://creativecommons.org/ns#"
   xmlns:rdf="http://www.w3.org/1999/02/22-rdf-syntax-ns#"
   xmlns:svg="http://www.w3.org/2000/svg"
   xmlns="http://www.w3.org/2000/svg"
   xmlns:xlink="http://www.w3.org/1999/xlink"
   xmlns:sodipodi="http://sodipodi.sourceforge.net/DTD/sodipodi-0.dtd"
   xmlns:inkscape="http://www.inkscape.org/namespaces/inkscape"
   version="1.0"
   id="Layer_1"
   x="0px"
   y="0px"
   viewBox="0 0 156.58821 64"
   xml:space="preserve"
   inkscape:version="0.91 r13725"
   sodipodi:docname="mir-accept.svg"
   width="156.58821"
   height="64"><metadata
     id="metadata547"><rdf:RDF><cc:Work
         rdf:about=""><dc:format>image/svg+xml</dc:format><dc:type
           rdf:resource="http://purl.org/dc/dcmitype/StillImage" /><dc:title>mir-01</dc:title></cc:Work></rdf:RDF></metadata><defs
     id="defs545" /><sodipodi:namedview
     pagecolor="#ffffff"
     bordercolor="#666666"
     borderopacity="1"
     objecttolerance="10"
     gridtolerance="10"
     guidetolerance="10"
     inkscape:pageopacity="0"
     inkscape:pageshadow="2"
     inkscape:window-width="1172"
     inkscape:window-height="520"
     id="namedview543"
     showgrid="false"
     fit-margin-top="0"
     fit-margin-left="0"
     fit-margin-right="0"
     fit-margin-bottom="0"
     inkscape:zoom="0.78478965"
     inkscape:cx="247.17881"
     inkscape:cy="100.9"
     inkscape:window-x="445"
     inkscape:window-y="166"
     inkscape:window-maximized="0"
     inkscape:current-layer="Layer_1" /><style
     type="text/css"
     id="style27">
	.st0{fill:#24A23F;}
	.st1{fill:#00A9E4;}
	.st2{fill:#29B352;}
	.st3{clip-path:url(#SVGID_2_);}
	.st4{clip-path:url(#SVGID_4_);}
	.st5{clip-path:url(#SVGID_6_);}
</style><title
     id="title29">mir-01</title><path
     class="st0"
     d="m 29.893291,22.444069 -2.945657,10.19894 -0.50678,0 -2.945657,-10.19894 c -0.506779,-1.71039 -2.090466,-2.91399 -3.864195,-2.91399 l -7.031568,0 0,22.17161 7.063242,0 0,-13.08125 0.50678,0 4.022563,13.11293 5.036124,0 4.022563,-13.11293 0.50678,0 0,13.11293 7.063242,0 0,-22.17161 -7.063242,0 c -1.773729,-0.0317 -3.357415,1.17192 -3.864195,2.88231 z"
     id="path31"
     inkscape:connector-curvature="0"
     style="fill:#24a23f" /><path
     class="st1"
     d="m 128.90537,34.131669 0,7.18994 3.29407,0 0,-4.18093 5.79629,0 c 1.96377,0.0317 3.7375,-1.17193 4.43432,-2.97733 l -13.52468,0 z"
     id="path33"
     inkscape:connector-curvature="0"
     style="fill:#00a9e4" /><path
     class="st2"
     d="m 137.64732,27.796929 -10.10392,0 c 0.63347,3.38909 3.57913,5.85964 7.03157,5.85964 l 7.85508,0 c 0.53845,-2.6606 -1.17193,-5.22617 -3.83252,-5.76462 -0.28506,-0.0634 -0.6018,-0.095 -0.95021,-0.095 l 0,0 z"
     id="path35"
     inkscape:connector-curvature="0"
     style="fill:#29b352" /><g
     id="g37"
     transform="matrix(0.3167373,0,0,0.3167373,-0.00671026,0.05073876)"><defs
       id="defs39"><path
         id="SVGID_1_"
         d="m 434.6,87.6 -31.9,0 c 2,10.7 11.3,18.5 22.2,18.5 l 24.8,0 c 1.7,-8.4 -3.7,-16.5 -12.1,-18.2 -0.9,-0.2 -1.9,-0.3 -3,-0.3 l 0,0 z"
         inkscape:connector-curvature="0" /></defs><clipPath
       id="SVGID_2_"><use
         xlink:href="#SVGID_1_"
         style="overflow:visible"
         id="use43"
         x="0"
         y="0"
         width="100%"
         height="100%" /></clipPath><g
       class="st3"
       id="g45"
       clip-path="url(#SVGID_2_)"><rect
         x="402.79999"
         y="87.599998"
         class="st2"
         width="0.60000002"
         height="18.5"
         id="rect47"
         style="fill:#29b352" /><rect
         x="403.39999"
         y="87.599998"
         class="st2"
         width="0.60000002"
         height="18.5"
         id="rect49"
         style="fill:#29b352" /><rect
         x="404"
         y="87.599998"
         class="st2"
         width="0.60000002"
         height="18.5"
         id="rect51"
         style="fill:#29b352" /><rect
         x="404.70001"
         y="87.599998"
         class="st2"
         width="0.60000002"
         height="18.5"
         id="rect53"
         style="fill:#29b352" /><rect
         x="405.29999"
         y="87.599998"
         class="st2"
         width="0.60000002"
         height="18.5"
         id="rect55"
         style="fill:#29b352" /><rect
         x="406"
         y="87.599998"
         class="st2"
         width="0.60000002"
         height="18.5"
         id="rect57"
         style="fill:#29b352" /><rect
         x="406.60001"
         y="87.599998"
         class="st2"
         width="0.60000002"
         height="18.5"
         id="rect59"
         style="fill:#29b352" /><rect
         x="407.29999"
         y="87.599998"
         class="st2"
         width="0.60000002"
         height="18.5"
         id="rect61"
         style="fill:#29b352" /><rect
         x="407.89999"
         y="87.599998"
         class="st2"
         width="0.60000002"
         height="18.5"
         id="rect63"
         style="fill:#29b352" /><rect
         x="408.5"
         y="87.599998"
         class="st2"
         width="0.60000002"
         height="18.5"
         id="rect65"
         style="fill:#29b352" /><rect
         x="409.20001"
         y="87.599998"
         class="st2"
         width="0.60000002"
         height="18.5"
         id="rect67"
         style="fill:#29b352" /><rect
         x="409.79999"
         y="87.599998"
         class="st2"
         width="0.60000002"
         height="18.5"
         id="rect69"
         style="fill:#29b352" /><rect
         x="410.39999"
         y="87.599998"
         class="st2"
         width="0.60000002"
         height="18.5"
         id="rect71"
         style="fill:#29b352" /><rect
         x="411.10001"
         y="87.599998"
         class="st2"
         width="0.60000002"
         height="18.5"
         id="rect73"
         style="fill:#29b352" /><rect
         x="411.70001"
         y="87.599998"
         class="st2"
         width="0.60000002"
         height="18.5"
         id="rect75"
         style="fill:#29b352" /><rect
         x="412.39999"
         y="87.599998"
         class="st2"
         width="0.60000002"
         height="18.5"
         id="rect77"
         style="fill:#29b352" /><rect
         x="413"
         y="87.599998"
         class="st2"
         width="0.60000002"
         height="18.5"
         id="rect79"
         style="fill:#29b352" /><rect
         x="413.60001"
         y="87.599998"
         class="st2"
         width="0.60000002"
         height="18.5"
         id="rect81"
         style="fill:#29b352" /><rect
         x="414.29999"
         y="87.599998"
         class="st2"
         width="0.60000002"
         height="18.5"
         id="rect83"
         style="fill:#29b352" /><rect
         x="414.89999"
         y="87.599998"
         class="st2"
         width="0.60000002"
         height="18.5"
         id="rect85"
         style="fill:#29b352" /><rect
         x="415.60001"
         y="87.599998"
         class="st2"
         width="0.60000002"
         height="18.5"
         id="rect87"
         style="fill:#29b352" /><rect
         x="416.20001"
         y="87.599998"
         class="st2"
         width="0.60000002"
         height="18.5"
         id="rect89"
         style="fill:#29b352" /><rect
         x="416.79999"
         y="87.599998"
         class="st2"
         width="0.60000002"
         height="18.5"
         id="rect91"
         style="fill:#29b352" /><rect
         x="417.5"
         y="87.599998"
         class="st2"
         width="0.60000002"
         height="18.5"
         id="rect93"
         style="fill:#29b352" /><rect
         x="418.10001"
         y="87.599998"
         class="st2"
         width="0.60000002"
         height="18.5"
         id="rect95"
         style="fill:#29b352" /><rect
         x="418.79999"
         y="87.599998"
         class="st2"
         width="0.60000002"
         height="18.5"
         id="rect97"
         style="fill:#29b352" /><rect
         x="419.39999"
         y="87.599998"
         class="st2"
         width="0.60000002"
         height="18.5"
         id="rect99"
         style="fill:#29b352" /><rect
         x="420"
         y="87.599998"
         class="st2"
         width="0.60000002"
         height="18.5"
         id="rect101"
         style="fill:#29b352" /><rect
         x="420.70001"
         y="87.599998"
         class="st2"
         width="0.60000002"
         height="18.5"
         id="rect103"
         style="fill:#29b352" /><rect
         x="421.29999"
         y="87.599998"
         class="st2"
         width="0.60000002"
         height="18.5"
         id="rect105"
         style="fill:#29b352" /><rect
         x="422"
         y="87.599998"
         class="st2"
         width="0.60000002"
         height="18.5"
         id="rect107"
         style="fill:#29b352" /><rect
         x="422.60001"
         y="87.599998"
         class="st2"
         width="0.60000002"
         height="18.5"
         id="rect109"
         style="fill:#29b352" /><rect
         x="423.20001"
         y="87.599998"
         class="st2"
         width="0.60000002"
         height="18.5"
         id="rect111"
         style="fill:#29b352" /><rect
         x="423.89999"
         y="87.599998"
         class="st2"
         width="0.60000002"
         height="18.5"
         id="rect113"
         style="fill:#29b352" /><rect
         x="424.5"
         y="87.599998"
         class="st2"
         width="0.60000002"
         height="18.5"
         id="rect115"
         style="fill:#29b352" /><rect
         x="425.10001"
         y="87.599998"
         class="st2"
         width="0.60000002"
         height="18.5"
         id="rect117"
         style="fill:#29b352" /><rect
         x="425.79999"
         y="87.599998"
         class="st2"
         width="0.60000002"
         height="18.5"
         id="rect119"
         style="fill:#29b352" /><rect
         x="426.39999"
         y="87.599998"
         class="st2"
         width="0.60000002"
         height="18.5"
         id="rect121"
         style="fill:#29b352" /><rect
         x="427.10001"
         y="87.599998"
         class="st2"
         width="0.60000002"
         height="18.5"
         id="rect123"
         style="fill:#29b352" /><rect
         x="427.70001"
         y="87.599998"
         class="st2"
         width="0.60000002"
         height="18.5"
         id="rect125"
         style="fill:#29b352" /><rect
         x="428.29999"
         y="87.599998"
         class="st2"
         width="0.60000002"
         height="18.5"
         id="rect127"
         style="fill:#29b352" /><rect
         x="429"
         y="87.599998"
         class="st2"
         width="0.60000002"
         height="18.5"
         id="rect129"
         style="fill:#29b352" /><rect
         x="429.60001"
         y="87.599998"
         class="st2"
         width="0.60000002"
         height="18.5"
         id="rect131"
         style="fill:#29b352" /><rect
         x="430.29999"
         y="87.599998"
         class="st2"
         width="0.60000002"
         height="18.5"
         id="rect133"
         style="fill:#29b352" /><rect
         x="430.89999"
         y="87.599998"
         class="st2"
         width="0.60000002"
         height="18.5"
         id="rect135"
         style="fill:#29b352" /><rect
         x="431.5"
         y="87.599998"
         class="st2"
         width="0.60000002"
         height="18.5"
         id="rect137"
         style="fill:#29b352" /><rect
         x="432.20001"
         y="87.599998"
         class="st2"
         width="0.60000002"
         height="18.5"
         id="rect139"
         style="fill:#29b352" /><rect
         x="432.79999"
         y="87.599998"
         class="st2"
         width="0.60000002"
         height="18.5"
         id="rect141"
         style="fill:#29b352" /><rect
         x="433.5"
         y="87.599998"
         class="st2"
         width="0.60000002"
         height="18.5"
         id="rect143"
         style="fill:#29b352" /><rect
         x="434.10001"
         y="87.599998"
         class="st2"
         width="0.60000002"
         height="18.5"
         id="rect145"
         style="fill:#29b352" /><rect
         x="434.70001"
         y="87.599998"
         class="st2"
         width="0.60000002"
         height="18.5"
         id="rect147"
         style="fill:#29b352" /><rect
         x="435.39999"
         y="87.599998"
         class="st2"
         width="0.60000002"
         height="18.5"
         id="rect149"
         style="fill:#29b352" /><rect
         x="436"
         y="87.599998"
         class="st2"
         width="0.60000002"
         height="18.5"
         id="rect151"
         style="fill:#29b352" /><rect
         x="436.60001"
         y="87.599998"
         class="st2"
         width="0.60000002"
         height="18.5"
         id="rect153"
         style="fill:#29b352" /><rect
         x="437.29999"
         y="87.599998"
         class="st2"
         width="0.60000002"
         height="18.5"
         id="rect155"
         style="fill:#29b352" /><rect
         x="437.89999"
         y="87.599998"
         class="st2"
         width="0.60000002"
         height="18.5"
         id="rect157"
         style="fill:#29b352" /><rect
         x="438.60001"
         y="87.599998"
         class="st2"
         width="0.60000002"
         height="18.5"
         id="rect159"
         style="fill:#29b352" /><rect
         x="439.20001"
         y="87.599998"
         class="st2"
         width="0.60000002"
         height="18.5"
         id="rect161"
         style="fill:#29b352" /><rect
         x="439.89999"
         y="87.599998"
         class="st2"
         width="0.60000002"
         height="18.5"
         id="rect163"
         style="fill:#29b352" /><rect
         x="440.5"
         y="87.599998"
         class="st2"
         width="0.60000002"
         height="18.5"
         id="rect165"
         style="fill:#29b352" /><rect
         x="441.10001"
         y="87.599998"
         class="st2"
         width="0.60000002"
         height="18.5"
         id="rect167"
         style="fill:#29b352" /><rect
         x="441.79999"
         y="87.599998"
         class="st2"
         width="0.60000002"
         height="18.5"
         id="rect169"
         style="fill:#29b352" /><rect
         x="442.39999"
         y="87.599998"
         class="st2"
         width="0.60000002"
         height="18.5"
         id="rect171"
         style="fill:#29b352" /><rect
         x="443"
         y="87.599998"
         class="st2"
         width="0.60000002"
         height="18.5"
         id="rect173"
         style="fill:#29b352" /><rect
         x="443.70001"
         y="87.599998"
         class="st2"
         width="0.60000002"
         height="18.5"
         id="rect175"
         style="fill:#29b352" /><rect
         x="444.29999"
         y="87.599998"
         class="st2"
         width="0.60000002"
         height="18.5"
         id="rect177"
         style="fill:#29b352" /><rect
         x="445"
         y="87.599998"
         class="st2"
         width="0.60000002"
         height="18.5"
         id="rect179"
         style="fill:#29b352" /><rect
         x="445.60001"
         y="87.599998"
         class="st2"
         width="0.60000002"
         height="18.5"
         id="rect181"
         style="fill:#29b352" /><rect
         x="446.20001"
         y="87.599998"
         class="st2"
         width="0.60000002"
         height="18.5"
         id="rect183"
         style="fill:#29b352" /><rect
         x="446.89999"
         y="87.599998"
         class="st2"
         width="0.60000002"
         height="18.5"
         id="rect185"
         style="fill:#29b352" /><rect
         x="447.5"
         y="87.599998"
         class="st2"
         width="0.60000002"
         height="18.5"
         id="rect187"
         style="fill:#29b352" /><rect
         x="448.20001"
         y="87.599998"
         class="st2"
         width="0.60000002"
         height="18.5"
         id="rect189"
         style="fill:#29b352" /><rect
         x="448.79999"
         y="87.599998"
         class="st2"
         width="0.60000002"
         height="18.5"
         id="rect191"
         style="fill:#29b352" /><rect
         x="449.39999"
         y="87.599998"
         class="st2"
         width="0.60000002"
         height="18.5"
         id="rect193"
         style="fill:#29b352" /></g></g><path
     class="st1"
     d="m 147.75124,44.995759 -13.46134,0 c 0.82352,4.52935 4.78274,7.82341 9.37543,7.82341 l 10.45233,0 c 0.72849,-3.51578 -1.55202,-6.96822 -5.09947,-7.69671 -0.41176,-0.095 -0.82352,-0.1267 -1.26695,-0.1267 l 0,0 z"
     id="path195"
     inkscape:connector-curvature="0"
     style="fill:#00a9e4" /><g
     id="g197"
     transform="matrix(0.3167373,0,0,0.3167373,-0.00671026,0.05073876)"><defs
       id="defs199"><path
         id="SVGID_3_"
         d="m 466.5,141.9 -42.5,0 c 2.6,14.3 15.1,24.7 29.6,24.7 l 33,0 c 2.3,-11.1 -4.9,-22 -16.1,-24.3 -1.3,-0.3 -2.6,-0.4 -4,-0.4 l 0,0 z"
         inkscape:connector-curvature="0" /></defs><clipPath
       id="SVGID_4_"><use
         xlink:href="#SVGID_3_"
         style="overflow:visible"
         id="use203"
         x="0"
         y="0"
         width="100%"
         height="100%" /></clipPath><g
       class="st4"
       id="g205"
       clip-path="url(#SVGID_4_)"><rect
         x="424"
         y="141.89999"
         class="st1"
         width="0.89999998"
         height="24.700001"
         id="rect207"
         style="fill:#00a9e4" /><rect
         x="424.79999"
         y="141.89999"
         class="st1"
         width="0.89999998"
         height="24.700001"
         id="rect209"
         style="fill:#00a9e4" /><rect
         x="425.70001"
         y="141.89999"
         class="st1"
         width="0.89999998"
         height="24.700001"
         id="rect211"
         style="fill:#00a9e4" /><rect
         x="426.5"
         y="141.89999"
         class="st1"
         width="0.89999998"
         height="24.700001"
         id="rect213"
         style="fill:#00a9e4" /><rect
         x="427.39999"
         y="141.89999"
         class="st1"
         width="0.89999998"
         height="24.700001"
         id="rect215"
         style="fill:#00a9e4" /><rect
         x="428.20001"
         y="141.89999"
         class="st1"
         width="0.89999998"
         height="24.700001"
         id="rect217"
         style="fill:#00a9e4" /><rect
         x="429.10001"
         y="141.89999"
         class="st1"
         width="0.89999998"
         height="24.700001"
         id="rect219"
         style="fill:#00a9e4" /><rect
         x="430"
         y="141.89999"
         class="st1"
         width="0.89999998"
         height="24.700001"
         id="rect221"
         style="fill:#00a9e4" /><rect
         x="430.79999"
         y="141.89999"
         class="st1"
         width="0.89999998"
         height="24.700001"
         id="rect223"
         style="fill:#00a9e4" /><rect
         x="431.60001"
         y="141.89999"
         class="st1"
         width="0.89999998"
         height="24.700001"
         id="rect225"
         style="fill:#00a9e4" /><rect
         x="432.5"
         y="141.89999"
         class="st1"
         width="0.89999998"
         height="24.700001"
         id="rect227"
         style="fill:#00a9e4" /><rect
         x="433.39999"
         y="141.89999"
         class="st1"
         width="0.89999998"
         height="24.700001"
         id="rect229"
         style="fill:#00a9e4" /><rect
         x="434.20001"
         y="141.89999"
         class="st1"
         width="0.89999998"
         height="24.700001"
         id="rect231"
         style="fill:#00a9e4" /><rect
         x="435.10001"
         y="141.89999"
         class="st1"
         width="0.89999998"
         height="24.700001"
         id="rect233"
         style="fill:#00a9e4" /><rect
         x="435.89999"
         y="141.89999"
         class="st1"
         width="0.89999998"
         height="24.700001"
         id="rect235"
         style="fill:#00a9e4" /><rect
         x="436.79999"
         y="141.89999"
         class="st1"
         width="0.89999998"
         height="24.700001"
         id="rect237"
         style="fill:#00a9e4" /><rect
         x="437.60001"
         y="141.89999"
         class="st1"
         width="0.89999998"
         height="24.700001"
         id="rect239"
         style="fill:#00a9e4" /><rect
         x="438.5"
         y="141.89999"
         class="st1"
         width="0.89999998"
         height="24.700001"
         id="rect241"
         style="fill:#00a9e4" /><rect
         x="439.29999"
         y="141.89999"
         class="st1"
         width="0.89999998"
         height="24.700001"
         id="rect243"
         style="fill:#00a9e4" /><rect
         x="440.20001"
         y="141.89999"
         class="st1"
         width="0.89999998"
         height="24.700001"
         id="rect245"
         style="fill:#00a9e4" /><rect
         x="441"
         y="141.89999"
         class="st1"
         width="0.89999998"
         height="24.700001"
         id="rect247"
         style="fill:#00a9e4" /><rect
         x="441.89999"
         y="141.89999"
         class="st1"
         width="0.89999998"
         height="24.700001"
         id="rect249"
         style="fill:#00a9e4" /><rect
         x="442.70001"
         y="141.89999"
         class="st1"
         width="0.89999998"
         height="24.700001"
         id="rect251"
         style="fill:#00a9e4" /><rect
         x="443.60001"
         y="141.89999"
         class="st1"
         width="0.89999998"
         height="24.700001"
         id="rect253"
         style="fill:#00a9e4" /><rect
         x="444.39999"
         y="141.89999"
         class="st1"
         width="0.89999998"
         height="24.700001"
         id="rect255"
         style="fill:#00a9e4" /><rect
         x="445.29999"
         y="141.89999"
         class="st1"
         width="0.89999998"
         height="24.700001"
         id="rect257"
         style="fill:#00a9e4" /><rect
         x="446.10001"
         y="141.89999"
         class="st1"
         width="0.89999998"
         height="24.700001"
         id="rect259"
         style="fill:#00a9e4" /><rect
         x="447"
         y="141.89999"
         class="st1"
         width="0.89999998"
         height="24.700001"
         id="rect261"
         style="fill:#00a9e4" /><rect
         x="447.79999"
         y="141.89999"
         class="st1"
         width="0.89999998"
         height="24.700001"
         id="rect263"
         style="fill:#00a9e4" /><rect
         x="448.70001"
         y="141.89999"
         class="st1"
         width="0.89999998"
         height="24.700001"
         id="rect265"
         style="fill:#00a9e4" /><rect
         x="449.5"
         y="141.89999"
         class="st1"
         width="0.89999998"
         height="24.700001"
         id="rect267"
         style="fill:#00a9e4" /><rect
         x="450.39999"
         y="141.89999"
         class="st1"
         width="0.89999998"
         height="24.700001"
         id="rect269"
         style="fill:#00a9e4" /><rect
         x="451.20001"
         y="141.89999"
         class="st1"
         width="0.89999998"
         height="24.700001"
         id="rect271"
         style="fill:#00a9e4" /><rect
         x="452.10001"
         y="141.89999"
         class="st1"
         width="0.89999998"
         height="24.700001"
         id="rect273"
         style="fill:#00a9e4" /><rect
         x="453"
         y="141.89999"
         class="st1"
         width="0.89999998"
         height="24.700001"
         id="rect275"
         style="fill:#00a9e4" /><rect
         x="453.79999"
         y="141.89999"
         class="st1"
         width="0.89999998"
         height="24.700001"
         id="rect277"
         style="fill:#00a9e4" /><rect
         x="454.60001"
         y="141.89999"
         class="st1"
         width="0.89999998"
         height="24.700001"
         id="rect279"
         style="fill:#00a9e4" /><rect
         x="455.5"
         y="141.89999"
         class="st1"
         width="0.89999998"
         height="24.700001"
         id="rect281"
         style="fill:#00a9e4" /><rect
         x="456.39999"
         y="141.89999"
         class="st1"
         width="0.89999998"
         height="24.700001"
         id="rect283"
         style="fill:#00a9e4" /><rect
         x="457.20001"
         y="141.89999"
         class="st1"
         width="0.89999998"
         height="24.700001"
         id="rect285"
         style="fill:#00a9e4" /><rect
         x="458"
         y="141.89999"
         class="st1"
         width="0.89999998"
         height="24.700001"
         id="rect287"
         style="fill:#00a9e4" /><rect
         x="458.89999"
         y="141.89999"
         class="st1"
         width="0.89999998"
         height="24.700001"
         id="rect289"
         style="fill:#00a9e4" /><rect
         x="459.79999"
         y="141.89999"
         class="st1"
         width="0.89999998"
         height="24.700001"
         id="rect291"
         style="fill:#00a9e4" /><rect
         x="460.60001"
         y="141.89999"
         class="st1"
         width="0.89999998"
         height="24.700001"
         id="rect293"
         style="fill:#00a9e4" /><rect
         x="461.5"
         y="141.89999"
         class="st1"
         width="0.89999998"
         height="24.700001"
         id="rect295"
         style="fill:#00a9e4" /><rect
         x="462.29999"
         y="141.89999"
         class="st1"
         width="0.89999998"
         height="24.700001"
         id="rect297"
         style="fill:#00a9e4" /><rect
         x="463.20001"
         y="141.89999"
         class="st1"
         width="0.89999998"
         height="24.700001"
         id="rect299"
         style="fill:#00a9e4" /><rect
         x="464"
         y="141.89999"
         class="st1"
         width="0.89999998"
         height="24.700001"
         id="rect301"
         style="fill:#00a9e4" /><rect
         x="464.89999"
         y="141.89999"
         class="st1"
         width="0.89999998"
         height="24.700001"
         id="rect303"
         style="fill:#00a9e4" /><rect
         x="465.70001"
         y="141.89999"
         class="st1"
         width="0.89999998"
         height="24.700001"
         id="rect305"
         style="fill:#00a9e4" /><rect
         x="466.60001"
         y="141.89999"
         class="st1"
         width="0.89999998"
         height="24.700001"
         id="rect307"
         style="fill:#00a9e4" /><rect
         x="467.39999"
         y="141.89999"
         class="st1"
         width="0.89999998"
         height="24.700001"
         id="rect309"
         style="fill:#00a9e4" /><rect
         x="468.29999"
         y="141.89999"
         class="st1"
         width="0.89999998"
         height="24.700001"
         id="rect311"
         style="fill:#00a9e4" /><rect
         x="469.10001"
         y="141.89999"
         class="st1"
         width="0.89999998"
         height="24.700001"
         id="rect313"
         style="fill:#00a9e4" /><rect
         x="470"
         y="141.89999"
         class="st1"
         width="0.89999998"
         height="24.700001"
         id="rect315"
         style="fill:#00a9e4" /><rect
         x="470.79999"
         y="141.89999"
         class="st1"
         width="0.89999998"
         height="24.700001"
         id="rect317"
         style="fill:#00a9e4" /><rect
         x="471.70001"
         y="141.89999"
         class="st1"
         width="0.89999998"
         height="24.700001"
         id="rect319"
         style="fill:#00a9e4" /><rect
         x="472.5"
         y="141.89999"
         class="st1"
         width="0.89999998"
         height="24.700001"
         id="rect321"
         style="fill:#00a9e4" /><rect
         x="473.39999"
         y="141.89999"
         class="st1"
         width="0.89999998"
         height="24.700001"
         id="rect323"
         style="fill:#00a9e4" /><rect
         x="474.20001"
         y="141.89999"
         class="st1"
         width="0.89999998"
         height="24.700001"
         id="rect325"
         style="fill:#00a9e4" /><rect
         x="475.10001"
         y="141.89999"
         class="st1"
         width="0.89999998"
         height="24.700001"
         id="rect327"
         style="fill:#00a9e4" /><rect
         x="475.89999"
         y="141.89999"
         class="st1"
         width="0.89999998"
         height="24.700001"
         id="rect329"
         style="fill:#00a9e4" /><rect
         x="476.79999"
         y="141.89999"
         class="st1"
         width="0.89999998"
         height="24.700001"
         id="rect331"
         style="fill:#00a9e4" /><rect
         x="477.60001"
         y="141.89999"
         class="st1"
         width="0.89999998"
         height="24.700001"
         id="rect333"
         style="fill:#00a9e4" /><rect
         x="478.5"
         y="141.89999"
         class="st1"
         width="0.89999998"
         height="24.700001"
         id="rect335"
         style="fill:#00a9e4" /><rect
         x="479.39999"
         y="141.89999"
         class="st1"
         width="0.89999998"
         height="24.700001"
         id="rect337"
         style="fill:#00a9e4" /><rect
         x="480.20001"
         y="141.89999"
         class="st1"
         width="0.89999998"
         height="24.700001"
         id="rect339"
         style="fill:#00a9e4" /><rect
         x="481.89999"
         y="141.89999"
         class="st1"
         width="0.89999998"
         height="24.700001"
         id="rect341"
         style="fill:#00a9e4" /><rect
         x="482.79999"
         y="141.89999"
         class="st1"
         width="0.89999998"
         height="24.700001"
         id="rect343"
         style="fill:#00a9e4" /><rect
         x="483.60001"
         y="141.89999"
         class="st1"
         width="0.89999998"
         height="24.700001"
         id="rect345"
         style="fill:#00a9e4" /><rect
         x="484.5"
         y="141.89999"
         class="st1"
         width="0.89999998"
         height="24.700001"
         id="rect347"
         style="fill:#00a9e4" /><rect
         x="485.29999"
         y="141.89999"
         class="st1"
         width="0.89999998"
         height="24.700001"
         id="rect349"
         style="fill:#00a9e4" /><rect
         x="486.20001"
         y="141.89999"
         class="st1"
         width="0.89999998"
         height="24.700001"
         id="rect351"
         style="fill:#00a9e4" /></g></g><rect
     x="43.734711"
     y="19.78347"
     class="st0"
     width="6.7465043"
     height="22.07659"
     id="rect353"
     style="fill:#24a23f" /><path
     class="st0"
     d="m 53.648589,29.760699 0,12.09936 7.031568,0 0,-7.06324 7.570021,0 c 3.199047,0 6.049683,-2.02712 7.094916,-5.03612 l -21.696505,0 z"
     id="path355"
     inkscape:connector-curvature="0"
     style="fill:#24a23f" /><path
     class="st1"
     d="m 68.281852,19.688449 -15.615149,0 c 0.981886,5.25784 5.542903,9.09036 10.895763,9.09036 l 12.131039,0 c 0.823517,-4.08591 -1.805402,-8.0768 -5.922987,-8.93199 -0.475106,-0.095 -0.981886,-0.15837 -1.488666,-0.15837 z"
     id="path357"
     inkscape:connector-curvature="0"
     style="fill:#00a9e4" /><g
     id="g359"
     transform="matrix(0.3167373,0,0,0.3167373,-0.00671026,0.05073876)"><defs
       id="defs361"><path
         id="SVGID_5_"
         d="m 215.6,62 -49.3,0 c 3.1,16.6 17.5,28.7 34.4,28.7 l 38.3,0 C 241.6,77.8 233.3,65.2 220.3,62.5 218.8,62.2 217.2,62 215.6,62 Z"
         inkscape:connector-curvature="0" /></defs><clipPath
       id="SVGID_6_"><use
         xlink:href="#SVGID_5_"
         style="overflow:visible"
         id="use365"
         x="0"
         y="0"
         width="100%"
         height="100%" /></clipPath><g
       class="st5"
       id="g367"
       clip-path="url(#SVGID_6_)"><rect
         x="166.2"
         y="62"
         class="st1"
         width="1"
         height="28.700001"
         id="rect369"
         style="fill:#00a9e4" /><rect
         x="167.2"
         y="62"
         class="st1"
         width="1"
         height="28.700001"
         id="rect371"
         style="fill:#00a9e4" /><rect
         x="168.2"
         y="62"
         class="st1"
         width="1"
         height="28.700001"
         id="rect373"
         style="fill:#00a9e4" /><rect
         x="169.2"
         y="62"
         class="st1"
         width="1"
         height="28.700001"
         id="rect375"
         style="fill:#00a9e4" /><rect
         x="170.2"
         y="62"
         class="st1"
         width="1"
         height="28.700001"
         id="rect377"
         style="fill:#00a9e4" /><rect
         x="171.2"
         y="62"
         class="st1"
         width="1"
         height="28.700001"
         id="rect379"
         style="fill:#00a9e4" /><rect
         x="172.10001"
         y="62"
         class="st1"
         width="1"
         height="28.700001"
         id="rect381"
         style="fill:#00a9e4" /><rect
         x="173.10001"
         y="62"
         class="st1"
         width="1"
         height="28.700001"
         id="rect383"
         style="fill:#00a9e4" /><rect
         x="174.10001"
         y="62"
         class="st1"
         width="1"
         height="28.700001"
         id="rect385"
         style="fill:#00a9e4" /><rect
         x="175.10001"
         y="62"
         class="st1"
         width="1"
         height="28.700001"
         id="rect387"
         style="fill:#00a9e4" /><rect
         x="176.10001"
         y="62"
         class="st1"
         width="1"
         height="28.700001"
         id="rect389"
         style="fill:#00a9e4" /><rect
         x="177.10001"
         y="62"
         class="st1"
         width="1"
         height="28.700001"
         id="rect391"
         style="fill:#00a9e4" /><rect
         x="178.10001"
         y="62"
         class="st1"
         width="1"
         height="28.700001"
         id="rect393"
         style="fill:#00a9e4" /><rect
         x="179.10001"
         y="62"
         class="st1"
         width="1"
         height="28.700001"
         id="rect395"
         style="fill:#00a9e4" /><rect
         x="180.10001"
         y="62"
         class="st1"
         width="1"
         height="28.700001"
         id="rect397"
         style="fill:#00a9e4" /><rect
         x="181.10001"
         y="62"
         class="st1"
         width="1"
         height="28.700001"
         id="rect399"
         style="fill:#00a9e4" /><rect
         x="182"
         y="62"
         class="st1"
         width="1"
         height="28.700001"
         id="rect401"
         style="fill:#00a9e4" /><rect
         x="183"
         y="62"
         class="st1"
         width="1"
         height="28.700001"
         id="rect403"
         style="fill:#00a9e4" /><rect
         x="184"
         y="62"
         class="st1"
         width="1"
         height="28.700001"
         id="rect405"
         style="fill:#00a9e4" /><rect
         x="185"
         y="62"
         class="st1"
         width="1"
         height="28.700001"
         id="rect407"
         style="fill:#00a9e4" /><rect
         x="186"
         y="62"
         class="st1"
         width="1"
         height="28.700001"
         id="rect409"
         style="fill:#00a9e4" /><rect
         x="187"
         y="62"
         class="st1"
         width="1"
         height="28.700001"
         id="rect411"
         style="fill:#00a9e4" /><rect
         x="188"
         y="62"
         class="st1"
         width="1"
         height="28.700001"
         id="rect413"
         style="fill:#00a9e4" /><rect
         x="189"
         y="62"
         class="st1"
         width="1"
         height="28.700001"
         id="rect415"
         style="fill:#00a9e4" /><rect
         x="190"
         y="62"
         class="st1"
         width="1"
         height="28.700001"
         id="rect417"
         style="fill:#00a9e4" /><rect
         x="190.89999"
         y="62"
         class="st1"
         width="1"
         height="28.700001"
         id="rect419"
         style="fill:#00a9e4" /><rect
         x="191.89999"
         y="62"
         class="st1"
         width="1"
         height="28.700001"
         id="rect421"
         style="fill:#00a9e4" /><rect
         x="192.89999"
         y="62"
         class="st1"
         width="1"
         height="28.700001"
         id="rect423"
         style="fill:#00a9e4" /><rect
         x="193.89999"
         y="62"
         class="st1"
         width="1"
         height="28.700001"
         id="rect425"
         style="fill:#00a9e4" /><rect
         x="194.89999"
         y="62"
         class="st1"
         width="1"
         height="28.700001"
         id="rect427"
         style="fill:#00a9e4" /><rect
         x="195.89999"
         y="62"
         class="st1"
         width="1"
         height="28.700001"
         id="rect429"
         style="fill:#00a9e4" /><rect
         x="196.89999"
         y="62"
         class="st1"
         width="1"
         height="28.700001"
         id="rect431"
         style="fill:#00a9e4" /><rect
         x="197.89999"
         y="62"
         class="st1"
         width="1"
         height="28.700001"
         id="rect433"
         style="fill:#00a9e4" /><rect
         x="198.89999"
         y="62"
         class="st1"
         width="1"
         height="28.700001"
         id="rect435"
         style="fill:#00a9e4" /><rect
         x="199.89999"
         y="62"
         class="st1"
         width="1"
         height="28.700001"
         id="rect437"
         style="fill:#00a9e4" /><rect
         x="200.8"
         y="62"
         class="st1"
         width="1"
         height="28.700001"
         id="rect439"
         style="fill:#00a9e4" /><rect
         x="201.8"
         y="62"
         class="st1"
         width="1"
         height="28.700001"
         id="rect441"
         style="fill:#00a9e4" /><rect
         x="202.8"
         y="62"
         class="st1"
         width="1"
         height="28.700001"
         id="rect443"
         style="fill:#00a9e4" /><rect
         x="203.8"
         y="62"
         class="st1"
         width="1"
         height="28.700001"
         id="rect445"
         style="fill:#00a9e4" /><rect
         x="204.8"
         y="62"
         class="st1"
         width="1"
         height="28.700001"
         id="rect447"
         style="fill:#00a9e4" /><rect
         x="205.8"
         y="62"
         class="st1"
         width="1"
         height="28.700001"
         id="rect449"
         style="fill:#00a9e4" /><rect
         x="206.8"
         y="62"
         class="st1"
         width="1"
         height="28.700001"
         id="rect451"
         style="fill:#00a9e4" /><rect
         x="207.8"
         y="62"
         class="st1"
         width="1"
         height="28.700001"
         id="rect453"
         style="fill:#00a9e4" /><rect
         x="208.8"
         y="62"
         class="st1"
         width="1"
         height="28.700001"
         id="rect455"
         style="fill:#00a9e4" /><rect
         x="209.8"
         y="62"
         class="st1"
         width="1"
         height="28.700001"
         id="rect457"
         style="fill:#00a9e4" /><rect
         x="210.7"
         y="62"
         class="st1"
         width="1"
         height="28.700001"
         id="rect459"
         style="fill:#00a9e4" /><rect
         x="211.7"
         y="62"
         class="st1"
         width="1"
         height="28.700001"
         id="rect461"
         style="fill:#00a9e4" /><rect
         x="212.7"
         y="62"
         class="st1"
         width="1"
         height="28.700001"
         id="rect463"
         style="fill:#00a9e4" /><rect
         x="213.7"
         y="62"
         class="st1"
         width="1"
         height="28.700001"
         id="rect465"
         style="fill:#00a9e4" /><rect
         x="214.7"
         y="62"
         class="st1"
         width="1"
         height="28.700001"
         id="rect467"
         style="fill:#00a9e4" /><rect
         x="215.7"
         y="62"
         class="st1"
         width="1"
         height="28.700001"
         id="rect469"
         style="fill:#00a9e4" /><rect
         x="216.7"
         y="62"
         class="st1"
         width="1"
         height="28.700001"
         id="rect471"
         style="fill:#00a9e4" /><rect
         x="217.7"
         y="62"
         class="st1"
         width="1"
         height="28.700001"
         id="rect473"
         style="fill:#00a9e4" /><rect
         x="218.60001"
         y="62"
         class="st1"
         width="1"
         height="28.700001"
         id="rect475"
         style="fill:#00a9e4" /><rect
         x="219.60001"
         y="62"
         class="st1"
         width="1"
         height="28.700001"
         id="rect477"
         style="fill:#00a9e4" /><rect
         x="220.60001"
         y="62"
         class="st1"
         width="1"
         height="28.700001"
         id="rect479"
         style="fill:#00a9e4" /><rect
         x="221.60001"
         y="62"
         class="st1"
         width="1"
         height="28.700001"
         id="rect481"
         style="fill:#00a9e4" /><rect
         x="222.60001"
         y="62"
         class="st1"
         width="1"
         height="28.700001"
         id="rect483"
         style="fill:#00a9e4" /><rect
         x="223.60001"
         y="62"
         class="st1"
         width="1"
         height="28.700001"
         id="rect485"
         style="fill:#00a9e4" /><rect
         x="224.60001"
         y="62"
         class="st1"
         width="1"
         height="28.700001"
         id="rect487"
         style="fill:#00a9e4" /><rect
         x="225.60001"
         y="62"
         class="st1"
         width="1"
         height="28.700001"
         id="rect489"
         style="fill:#00a9e4" /><rect
         x="226.60001"
         y="62"
         class="st1"
         width="1"
         height="28.700001"
         id="rect491"
         style="fill:#00a9e4" /><rect
         x="227.60001"
         y="62"
         class="st1"
         width="1"
         height="28.700001"
         id="rect493"
         style="fill:#00a9e4" /><rect
         x="228.60001"
         y="62"
         class="st1"
         width="1"
         height="28.700001"
         id="rect495"
         style="fill:#00a9e4" /><rect
         x="229.5"
         y="62"
         class="st1"
         width="1"
         height="28.700001"
         id="rect497"
         style="fill:#00a9e4" /><rect
         x="230.5"
         y="62"
         class="st1"
         width="1"
         height="28.700001"
         id="rect499"
         style="fill:#00a9e4" /><rect
         x="231.5"
         y="62"
         class="st1"
         width="1"
         height="28.700001"
         id="rect501"
         style="fill:#00a9e4" /><rect
         x="232.5"
         y="62"
         class="st1"
         width="1"
         height="28.700001"
         id="rect503"
         style="fill:#00a9e4" /><rect
         x="233.5"
         y="62"
         class="st1"
         width="1"
         height="28.700001"
         id="rect505"
         style="fill:#00a9e4" /><rect
         x="234.5"
         y="62"
         class="st1"
         width="1"
         height="28.700001"
         id="rect507"
         style="fill:#00a9e4" /><rect
         x="235.5"
         y="62"
         class="st1"
         width="1"
         height="28.700001"
         id="rect509"
         style="fill:#00a9e4" /><rect
         x="236.5"
         y="62"
         class="st1"
         width="1"
         height="28.700001"
         id="rect511"
         style="fill:#00a9e4" /><rect
         x="237.39999"
         y="62"
         class="st1"
         width="1"
         height="28.700001"
         id="rect513"
         style="fill:#00a9e4" /><rect
         x="238.39999"
         y="62"
         class="st1"
         width="1"
         height="28.700001"
         id="rect515"
         style="fill:#00a9e4" /></g></g><polygon
     class="st0"
     points="239.1,132 212.8,132 198.8,103.7 221.1,103.7 "
     id="polygon517"
     transform="matrix(0.3167373,0,0,0.3167373,-0.00671026,0.05073876)"
     style="fill:#24a23f" /><rect
     x="148.38472"
     y="30.140785"
     class="st1"
     width="3.7375002"
     height="12.257734"
     id="rect519"
     style="fill:#00a9e4" /><rect
     x="143.91873"
     y="27.82859"
     class="st1"
     width="12.669492"
     height="2.8189619"
     id="rect521"
     style="fill:#00a9e4" /><rect
     x="117.94627"
     y="27.82859"
     class="st1"
     width="3.3890891"
     height="13.397987"
     id="rect523"
     style="fill:#00a9e4" /><rect
     x="117.94627"
     y="27.82859"
     class="st1"
     width="8.4252129"
     height="2.7872884"
     id="rect525"
     style="fill:#00a9e4" /><rect
     x="117.94627"
     y="38.597664"
     class="st1"
     width="8.6469278"
     height="2.7239408"
     id="rect527"
     style="fill:#00a9e4" /><rect
     x="118.5164"
     y="33.276482"
     class="st1"
     width="6.6514835"
     height="2.5338984"
     id="rect529"
     style="fill:#00a9e4" /><rect
     x="80.824646"
     y="35.842049"
     class="st1"
     width="6.6514835"
     height="2.7556145"
     id="rect531"
     style="fill:#00a9e4" /><polygon
     class="st1"
     points="259.7,87.6 245.7,130.2 256.7,130.2 265.7,101.3 274.9,130.2 285.7,130.2 271.7,87.6 270.2,87.6 261.2,87.6 "
     id="polygon533"
     transform="matrix(0.3167373,0,0,0.3167373,-0.00671026,0.05073876)"
     style="fill:#00a9e4" /><path
     class="st1"
     d="m 101.53927,36.918959 c -0.76017,0.76017 -2.090467,1.48867 -3.262395,1.48867 -2.280509,0 -4.149259,-1.77373 -4.149259,-3.92755 0,-2.15381 1.86875,-3.92754 4.149259,-3.92754 1.076907,0 2.438875,0.76017 3.167365,1.39364 l 1.457,-2.50222 c -1.36197,-1.17193 -3.104026,-1.8054 -4.909429,-1.8054 -4.054237,0 -7.316631,3.10402 -7.316631,6.93654 0,3.83253 3.262394,6.93655 7.316631,6.93655 1.995443,0 3.895869,-0.76017 5.289509,-2.15381 l -1.74205,-2.43888 z"
     id="path535"
     inkscape:connector-curvature="0"
     style="fill:#00a9e4" /><path
     class="st1"
     d="m 114.58884,36.918959 c -0.76017,0.76017 -2.09046,1.48867 -3.26239,1.48867 -2.28051,0 -4.14926,-1.77373 -4.14926,-3.92755 0,-2.15381 1.86875,-3.92754 4.14926,-3.92754 1.0769,0 2.43888,0.76017 3.16737,1.39364 l 1.45699,-2.50222 c -1.36197,-1.17193 -3.10402,-1.8054 -4.90943,-1.8054 -4.05423,0 -7.31663,3.10402 -7.31663,6.93654 0,3.83253 3.2624,6.93655 7.31663,6.93655 1.99545,0 3.89587,-0.76017 5.28952,-2.15381 l -1.74206,-2.43888 z"
     id="path537"
     inkscape:connector-curvature="0"
     style="fill:#00a9e4" /><rect
     x="53.110134"
     y="44.995766"
     class="st1"
     width="92.867378"
     height="7.8234115"
     id="rect539"
     style="fill:#00a9e4" /><path
     class="st1"
     d="m 53.141809,45.027439 c -4.402648,7.09491 -12.036018,11.75095 -20.96801,11.75095 C 18.4274,56.936759 7.1515528,45.914299 6.9931842,32.167899 6.8348155,18.421499 17.857273,7.1456488 31.603672,6.9872888 c 0.190043,0 0.380085,0 0.570127,0 8.298518,0 15.61515,4.2126002 20.144493,10.4206502 l 8.171823,0 C 52.444987,1.6977688 33.155685,-4.5419512 17.413841,3.5348488 1.6719974,11.611649 -4.5360537,30.869279 3.5407475,46.611119 c 5.4795554,10.67405 16.4703395,17.38888 28.4746835,17.38888 12.954556,0 24.357099,-7.95011 29.393222,-19.03591 l -8.266844,0.0633 z"
     id="path541"
     inkscape:connector-curvature="0"
     style="fill:#00a9e4" /></svg>