<?xml version="1.0" encoding="UTF-8" standalone="no"?>
<!-- Generator: Adobe Illustrator 19.2.1, SVG Export Plug-In . SVG Version: 6.00 Build 0)  -->

<svg
   xmlns:dc="http://purl.org/dc/elements/1.1/"
   xmlns:cc="http://creativecommons.org/ns#"
   xmlns:rdf="http://www.w3.org/1999/02/22-rdf-syntax-ns#"
   xmlns:svg="http://www.w3.org/2000/svg"
   xmlns="http://www.w3.org/2000/svg"
   xmlns:xlink="http://www.w3.org/1999/xlink"
   xmlns:sodipodi="http://sodipodi.sourceforge.net/DTD/sodipodi-0.dtd"
   xmlns:inkscape="http://www.inkscape.org/namespaces/inkscape"
   version="1.0"
   id="Layer_1"
   x="0px"
   y="0px"
   viewBox="0 0 226.70495 63.999997"
   xml:space="preserve"
   inkscape:version="0.91 r13725"
   sodipodi:docname="mir.svg"
   width="226.70496"
   height="64"><metadata
     id="metadata722"><rdf:RDF><cc:Work
         rdf:about=""><dc:format>image/svg+xml</dc:format><dc:type
           rdf:resource="http://purl.org/dc/dcmitype/StillImage" /><dc:title>mir</dc:title></cc:Work></rdf:RDF></metadata><defs
     id="defs720" /><sodipodi:namedview
     pagecolor="#ffffff"
     bordercolor="#666666"
     borderopacity="1"
     objecttolerance="10"
     gridtolerance="10"
     guidetolerance="10"
     inkscape:pageopacity="0"
     inkscape:pageshadow="2"
     inkscape:window-width="1007"
     inkscape:window-height="586"
     id="namedview718"
     showgrid="false"
     fit-margin-top="0"
     fit-margin-left="0"
     fit-margin-right="0"
     fit-margin-bottom="0"
     inkscape:zoom="1.6935835"
     inkscape:cx="111.05"
     inkscape:cy="31.5"
     inkscape:window-x="682"
     inkscape:window-y="177"
     inkscape:window-maximized="0"
     inkscape:current-layer="Layer_1" /><style
     type="text/css"
     id="style550">
	.st0{fill:#24A23F;}
	.st1{clip-path:url(#SVGID_2_);}
	.st2{fill:#00A3E1;}
	.st3{fill:#00A3E0;}
	.st4{fill:#00A2E0;}
	.st5{fill:#00A1DF;}
	.st6{fill:#00A0DF;}
	.st7{fill:#00A0DE;}
	.st8{fill:#009FDE;}
	.st9{fill:#009EDD;}
	.st10{fill:#009DDD;}
	.st11{fill:#009DDC;}
	.st12{fill:#009CDC;}
	.st13{fill:#009BDB;}
	.st14{fill:#009ADA;}
	.st15{fill:#0099DA;}
	.st16{fill:#0099D9;}
	.st17{fill:#0098D9;}
	.st18{fill:#0097D8;}
	.st19{fill:#0096D8;}
	.st20{fill:#0096D7;}
	.st21{fill:#0095D7;}
	.st22{fill:#0094D6;}
	.st23{fill:#0093D5;}
	.st24{fill:#0092D5;}
	.st25{fill:#0092D4;}
	.st26{fill:#0091D4;}
	.st27{fill:#0091D3;}
	.st28{fill:#0090D3;}
	.st29{fill:#008FD2;}
	.st30{fill:#008ED1;}
	.st31{fill:#008DD1;}
	.st32{fill:#008CD0;}
	.st33{fill:#008BCF;}
	.st34{fill:#008ACF;}
	.st35{fill:#008ACE;}
	.st36{fill:#0089CE;}
	.st37{fill:#0088CD;}
	.st38{fill:#0087CD;}
	.st39{fill:#0087CC;}
	.st40{fill:#0086CB;}
	.st41{fill:#0085CB;}
	.st42{fill:#0085CA;}
	.st43{fill:#0084CA;}
	.st44{fill:#0083C9;}
	.st45{fill:#0082C9;}
	.st46{fill:#0081C8;}
	.st47{fill:#0081C7;}
	.st48{fill:#0080C7;}
	.st49{fill:#007FC6;}
	.st50{fill:#007EC6;}
	.st51{fill:#007EC5;}
	.st52{fill:#007DC4;}
	.st53{fill:#007CC4;}
	.st54{fill:#007BC3;}
	.st55{fill:#007AC2;}
	.st56{fill:#0079C1;}
	.st57{fill:#0078C1;}
	.st58{fill:#0077C0;}
	.st59{fill:#0076BF;}
</style><title
     id="title552">mir</title><path
     class="st0"
     d="m 126.16268,6.7368402 -14.29027,31.0303028 -1.42903,0 0,-37.7671449073486 -20.414672,0 0,63.8979269073486 17.250402,0 c 4.49122,0 8.67623,-2.653908 10.51355,-6.736842 l 14.29027,-31.030304 1.42903,0 0,37.767146 20.3126,0 0,-63.8979269073486 -17.2504,0 c -4.38915,0 -8.47209,2.6539075073486 -10.41148,6.7368421073486 z"
     id="path554"
     inkscape:connector-curvature="0"
     style="fill:#24a23f" /><path
     class="st0"
     d="m 49.913876,8.4720871 -8.47209,29.3971299 -1.429027,0 L 31.54067,8.4720871 C 30.111643,3.4704925 25.518341,-1.9073486e-6 20.3126,-1.9073486e-6 l -20.3126,0 L 0,63.897925 l 20.3126,0 0,-37.767146 1.429027,0 11.636363,37.767146 14.494418,0 11.636364,-37.767146 1.429027,0 0,37.767146 20.3126,0 0,-63.8979269073486 -20.210527,0 C 55.834131,-1.9073486e-6 51.342903,3.4704925 49.913876,8.4720871 Z"
     id="path556"
     inkscape:connector-curvature="0"
     style="fill:#24a23f" /><path
     class="st0"
     d="m 162.70494,29.090907 0,34.909091 20.3126,0 0,-20.414673 21.8437,0 c 9.18661,0 17.45455,-5.818182 20.51675,-14.494418 l -62.67305,0 z"
     id="path558"
     inkscape:connector-curvature="0"
     style="fill:#24a23f" /><g
     id="g560"
     transform="matrix(1.0207337,0,0,1.0207337,-3.5725678,-3.2663496)"><defs
       id="defs562"><path
         id="SVGID_1_"
         d="m 204.2,3.2 -44.1,0 c 2.7,14.8 15.7,25.6 30.8,25.6 l 34.3,0 C 227.5,17.3 220,6 208.4,3.7 207,3.4 205.6,3.2 204.2,3.2 Z"
         inkscape:connector-curvature="0" /></defs><clipPath
       id="SVGID_2_"><use
         xlink:href="#SVGID_1_"
         style="overflow:visible"
         id="use566"
         x="0"
         y="0"
         width="100%"
         height="100%" /></clipPath><g
       class="st1"
       id="g568"
       clip-path="url(#SVGID_2_)"><rect
         x="160.10001"
         y="3.2"
         class="st2"
         width="0.89999998"
         height="25.6"
         id="rect570"
         style="fill:#00a3e1" /><rect
         x="161"
         y="3.2"
         class="st2"
         width="0.89999998"
         height="25.6"
         id="rect572"
         style="fill:#00a3e1" /><rect
         x="161.8"
         y="3.2"
         class="st3"
         width="0.89999998"
         height="25.6"
         id="rect574"
         style="fill:#00a3e0" /><rect
         x="162.7"
         y="3.2"
         class="st3"
         width="0.89999998"
         height="25.6"
         id="rect576"
         style="fill:#00a3e0" /><rect
         x="163.60001"
         y="3.2"
         class="st4"
         width="0.89999998"
         height="25.6"
         id="rect578"
         style="fill:#00a2e0" /><rect
         x="164.5"
         y="3.2"
         class="st4"
         width="0.89999998"
         height="25.6"
         id="rect580"
         style="fill:#00a2e0" /><rect
         x="165.39999"
         y="3.2"
         class="st4"
         width="0.89999998"
         height="25.6"
         id="rect582"
         style="fill:#00a2e0" /><rect
         x="166.3"
         y="3.2"
         class="st5"
         width="0.89999998"
         height="25.6"
         id="rect584"
         style="fill:#00a1df" /><rect
         x="167.10001"
         y="3.2"
         class="st5"
         width="0.89999998"
         height="25.6"
         id="rect586"
         style="fill:#00a1df" /><rect
         x="168"
         y="3.2"
         class="st6"
         width="0.89999998"
         height="25.6"
         id="rect588"
         style="fill:#00a0df" /><rect
         x="168.89999"
         y="3.2"
         class="st6"
         width="0.89999998"
         height="25.6"
         id="rect590"
         style="fill:#00a0df" /><rect
         x="169.8"
         y="3.2"
         class="st7"
         width="0.89999998"
         height="25.6"
         id="rect592"
         style="fill:#00a0de" /><rect
         x="170.7"
         y="3.2"
         class="st8"
         width="0.89999998"
         height="25.6"
         id="rect594"
         style="fill:#009fde" /><rect
         x="171.60001"
         y="3.2"
         class="st8"
         width="0.89999998"
         height="25.6"
         id="rect596"
         style="fill:#009fde" /><rect
         x="172.5"
         y="3.2"
         class="st9"
         width="0.89999998"
         height="25.6"
         id="rect598"
         style="fill:#009edd" /><rect
         x="173.39999"
         y="3.2"
         class="st9"
         width="0.89999998"
         height="25.6"
         id="rect600"
         style="fill:#009edd" /><rect
         x="174.2"
         y="3.2"
         class="st10"
         width="0.89999998"
         height="25.6"
         id="rect602"
         style="fill:#009ddd" /><rect
         x="175.10001"
         y="3.2"
         class="st11"
         width="0.89999998"
         height="25.6"
         id="rect604"
         style="fill:#009ddc" /><rect
         x="176"
         y="3.2"
         class="st12"
         width="0.89999998"
         height="25.6"
         id="rect606"
         style="fill:#009cdc" /><rect
         x="176.89999"
         y="3.2"
         class="st12"
         width="0.89999998"
         height="25.6"
         id="rect608"
         style="fill:#009cdc" /><rect
         x="177.8"
         y="3.2"
         class="st13"
         width="0.89999998"
         height="25.6"
         id="rect610"
         style="fill:#009bdb" /><rect
         x="178.60001"
         y="3.2"
         class="st13"
         width="0.89999998"
         height="25.6"
         id="rect612"
         style="fill:#009bdb" /><rect
         x="179.5"
         y="3.2"
         class="st14"
         width="0.89999998"
         height="25.6"
         id="rect614"
         style="fill:#009ada" /><rect
         x="180.39999"
         y="3.2"
         class="st14"
         width="0.89999998"
         height="25.6"
         id="rect616"
         style="fill:#009ada" /><rect
         x="181.3"
         y="3.2"
         class="st15"
         width="0.89999998"
         height="25.6"
         id="rect618"
         style="fill:#0099da" /><rect
         x="182.2"
         y="3.2"
         class="st16"
         width="0.89999998"
         height="25.6"
         id="rect620"
         style="fill:#0099d9" /><rect
         x="183.10001"
         y="3.2"
         class="st17"
         width="0.89999998"
         height="25.6"
         id="rect622"
         style="fill:#0098d9" /><rect
         x="184"
         y="3.2"
         class="st18"
         width="0.89999998"
         height="25.6"
         id="rect624"
         style="fill:#0097d8" /><rect
         x="184.89999"
         y="3.2"
         class="st18"
         width="0.89999998"
         height="25.6"
         id="rect626"
         style="fill:#0097d8" /><rect
         x="185.7"
         y="3.2"
         class="st19"
         width="0.89999998"
         height="25.6"
         id="rect628"
         style="fill:#0096d8" /><rect
         x="186.60001"
         y="3.2"
         class="st20"
         width="0.89999998"
         height="25.6"
         id="rect630"
         style="fill:#0096d7" /><rect
         x="187.5"
         y="3.2"
         class="st21"
         width="0.89999998"
         height="25.6"
         id="rect632"
         style="fill:#0095d7" /><rect
         x="188.39999"
         y="3.2"
         class="st22"
         width="0.89999998"
         height="25.6"
         id="rect634"
         style="fill:#0094d6" /><rect
         x="189.3"
         y="3.2"
         class="st22"
         width="0.89999998"
         height="25.6"
         id="rect636"
         style="fill:#0094d6" /><rect
         x="190.2"
         y="3.2"
         class="st23"
         width="0.89999998"
         height="25.6"
         id="rect638"
         style="fill:#0093d5" /><rect
         x="191"
         y="3.2"
         class="st24"
         width="0.89999998"
         height="25.6"
         id="rect640"
         style="fill:#0092d5" /><rect
         x="191.89999"
         y="3.2"
         class="st25"
         width="0.89999998"
         height="25.6"
         id="rect642"
         style="fill:#0092d4" /><rect
         x="192.8"
         y="3.2"
         class="st26"
         width="0.89999998"
         height="25.6"
         id="rect644"
         style="fill:#0091d4" /><rect
         x="193.7"
         y="3.2"
         class="st27"
         width="0.89999998"
         height="25.6"
         id="rect646"
         style="fill:#0091d3" /><rect
         x="194.60001"
         y="3.2"
         class="st28"
         width="0.89999998"
         height="25.6"
         id="rect648"
         style="fill:#0090d3" /><rect
         x="195.5"
         y="3.2"
         class="st29"
         width="0.89999998"
         height="25.6"
         id="rect650"
         style="fill:#008fd2" /><rect
         x="196.39999"
         y="3.2"
         class="st29"
         width="0.89999998"
         height="25.6"
         id="rect652"
         style="fill:#008fd2" /><rect
         x="197.2"
         y="3.2"
         class="st30"
         width="0.89999998"
         height="25.6"
         id="rect654"
         style="fill:#008ed1" /><rect
         x="198.10001"
         y="3.2"
         class="st31"
         width="0.89999998"
         height="25.6"
         id="rect656"
         style="fill:#008dd1" /><rect
         x="199"
         y="3.2"
         class="st32"
         width="0.89999998"
         height="25.6"
         id="rect658"
         style="fill:#008cd0" /><rect
         x="199.89999"
         y="3.2"
         class="st32"
         width="0.89999998"
         height="25.6"
         id="rect660"
         style="fill:#008cd0" /><rect
         x="200.8"
         y="3.2"
         class="st33"
         width="0.89999998"
         height="25.6"
         id="rect662"
         style="fill:#008bcf" /><rect
         x="201.7"
         y="3.2"
         class="st34"
         width="0.89999998"
         height="25.6"
         id="rect664"
         style="fill:#008acf" /><rect
         x="202.5"
         y="3.2"
         class="st35"
         width="0.89999998"
         height="25.6"
         id="rect666"
         style="fill:#008ace" /><rect
         x="203.39999"
         y="3.2"
         class="st36"
         width="0.89999998"
         height="25.6"
         id="rect668"
         style="fill:#0089ce" /><rect
         x="204.3"
         y="3.2"
         class="st37"
         width="0.89999998"
         height="25.6"
         id="rect670"
         style="fill:#0088cd" /><rect
         x="205.2"
         y="3.2"
         class="st38"
         width="0.89999998"
         height="25.6"
         id="rect672"
         style="fill:#0087cd" /><rect
         x="206.10001"
         y="3.2"
         class="st39"
         width="0.89999998"
         height="25.6"
         id="rect674"
         style="fill:#0087cc" /><rect
         x="207"
         y="3.2"
         class="st40"
         width="0.89999998"
         height="25.6"
         id="rect676"
         style="fill:#0086cb" /><rect
         x="207.89999"
         y="3.2"
         class="st41"
         width="0.89999998"
         height="25.6"
         id="rect678"
         style="fill:#0085cb" /><rect
         x="208.7"
         y="3.2"
         class="st42"
         width="0.89999998"
         height="25.6"
         id="rect680"
         style="fill:#0085ca" /><rect
         x="209.60001"
         y="3.2"
         class="st43"
         width="0.89999998"
         height="25.6"
         id="rect682"
         style="fill:#0084ca" /><rect
         x="210.5"
         y="3.2"
         class="st44"
         width="0.89999998"
         height="25.6"
         id="rect684"
         style="fill:#0083c9" /><rect
         x="211.39999"
         y="3.2"
         class="st45"
         width="0.89999998"
         height="25.6"
         id="rect686"
         style="fill:#0082c9" /><rect
         x="212.3"
         y="3.2"
         class="st46"
         width="0.89999998"
         height="25.6"
         id="rect688"
         style="fill:#0081c8" /><rect
         x="213.2"
         y="3.2"
         class="st47"
         width="0.89999998"
         height="25.6"
         id="rect690"
         style="fill:#0081c7" /><rect
         x="214"
         y="3.2"
         class="st48"
         width="0.89999998"
         height="25.6"
         id="rect692"
         style="fill:#0080c7" /><rect
         x="214.89999"
         y="3.2"
         class="st49"
         width="0.89999998"
         height="25.6"
         id="rect694"
         style="fill:#007fc6" /><rect
         x="215.8"
         y="3.2"
         class="st50"
         width="0.89999998"
         height="25.6"
         id="rect696"
         style="fill:#007ec6" /><rect
         x="216.7"
         y="3.2"
         class="st51"
         width="0.89999998"
         height="25.6"
         id="rect698"
         style="fill:#007ec5" /><rect
         x="217.60001"
         y="3.2"
         class="st52"
         width="0.89999998"
         height="25.6"
         id="rect700"
         style="fill:#007dc4" /><rect
         x="218.5"
         y="3.2"
         class="st53"
         width="0.89999998"
         height="25.6"
         id="rect702"
         style="fill:#007cc4" /><rect
         x="219.39999"
         y="3.2"
         class="st54"
         width="0.89999998"
         height="25.6"
         id="rect704"
         style="fill:#007bc3" /><rect
         x="220.2"
         y="3.2"
         class="st54"
         width="0.89999998"
         height="25.6"
         id="rect706"
         style="fill:#007bc3" /><rect
         x="221.10001"
         y="3.2"
         class="st55"
         width="0.89999998"
         height="25.6"
         id="rect708"
         style="fill:#007ac2" /><rect
         x="222"
         y="3.2"
         class="st56"
         width="0.89999998"
         height="25.6"
         id="rect710"
         style="fill:#0079c1" /><rect
         x="222.89999"
         y="3.2"
         class="st57"
         width="0.89999998"
         height="25.6"
         id="rect712"
         style="fill:#0078c1" /><rect
         x="223.8"
         y="3.2"
         class="st58"
         width="0.89999998"
         height="25.6"
         id="rect714"
         style="fill:#0077c0" /><rect
         x="224.7"
         y="3.2"
         class="st59"
         width="0.89999998"
         height="25.6"
         id="rect716"
         style="fill:#0076bf" /></g></g></svg>