<?xml version="1.0" encoding="UTF-8" standalone="no"?>
<!-- Generator: Adobe Illustrator 19.2.1, SVG Export Plug-In . SVG Version: 6.00 Build 0)  -->

<svg
   xmlns:dc="http://purl.org/dc/elements/1.1/"
   xmlns:cc="http://creativecommons.org/ns#"
   xmlns:rdf="http://www.w3.org/1999/02/22-rdf-syntax-ns#"
   xmlns:svg="http://www.w3.org/2000/svg"
   xmlns="http://www.w3.org/2000/svg"
   xmlns:sodipodi="http://sodipodi.sourceforge.net/DTD/sodipodi-0.dtd"
   xmlns:inkscape="http://www.inkscape.org/namespaces/inkscape"
   version="1.0"
   id="Layer_1"
   inkscape:version="0.91 r13725"
   sodipodi:docname="visa.svg"
   x="0px"
   y="0px"
   viewBox="0 0 197.69084 64"
   xml:space="preserve"
   width="197.69084"
   height="64"><metadata
     id="metadata736"><rdf:RDF><cc:Work
         rdf:about=""><dc:format>image/svg+xml</dc:format><dc:type
           rdf:resource="http://purl.org/dc/dcmitype/StillImage" /><dc:title></dc:title></cc:Work></rdf:RDF></metadata><defs
     id="defs734" /><style
     type="text/css"
     id="style725">
	.st0{fill:#00579F;}
</style><sodipodi:namedview
     bordercolor="#666666"
     borderopacity="1"
     gridtolerance="10"
     guidetolerance="10"
     id="namedview19"
     inkscape:current-layer="Layer_1"
     inkscape:cx="565.83883"
     inkscape:cy="192.77851"
     inkscape:pageopacity="0"
     inkscape:pageshadow="2"
     inkscape:window-height="622"
     inkscape:window-maximized="0"
     inkscape:window-width="1142"
     inkscape:window-x="503"
     inkscape:window-y="121"
     inkscape:zoom="0.5"
     objecttolerance="10"
     pagecolor="#ffffff"
     showgrid="false"
     fit-margin-top="0"
     fit-margin-left="0"
     fit-margin-right="0"
     fit-margin-bottom="0" /><g
     id="g4158"
     transform="matrix(0.875513,0,0,0.875513,-44.47606,-31.693571)"><polygon
       id="polygon9"
       class="st0"
       points="130.4,108.2 141.8,37.4 160.1,37.4 148.7,108.2 "
       style="fill:#00579f" /><path
       id="path11"
       inkscape:connector-curvature="0"
       class="st0"
       d="m 214.9,39.2 c -3.6,-1.4 -9.3,-3 -16.4,-3 -18.1,0 -30.8,9.6 -30.9,23.4 -0.1,10.2 9.1,15.8 16,19.2 7.1,3.5 9.5,5.7 9.5,8.8 -0.1,4.7 -5.7,6.9 -11,6.9 -7.3,0 -11.2,-1.1 -17.2,-3.8 l -2.4,-1.1 -2.6,15.9 c 4.3,2 12.2,3.7 20.4,3.8 19.2,0 31.7,-9.5 31.8,-24.2 0.1,-8.1 -4.8,-14.2 -15.4,-19.3 -6.4,-3.2 -10.3,-5.4 -10.3,-8.7 0.1,-3 3.3,-6.1 10.5,-6.1 5.9,-0.2 10.3,1.3 13.6,2.7 l 1.7,0.8 2.7,-15.3 c 0,0 0,0 0,0 z"
       style="fill:#00579f" /><path
       id="path13"
       inkscape:connector-curvature="0"
       class="st0"
       d="m 239.2,83.1 c 1.5,-4.1 7.3,-19.8 7.3,-19.8 -0.1,0.2 1.5,-4.1 2.4,-6.8 l 1.3,6.1 c 0,0 3.5,16.9 4.2,20.5 -2.8,0 -11.5,0 -15.2,0 l 0,0 z m 22.6,-45.7 -14.1,0 c -4.4,0 -7.7,1.3 -9.6,5.9 l -27.1,64.9 19.2,0 c 0,0 3.2,-8.7 3.8,-10.6 2.1,0 20.8,0 23.5,0 0.5,2.5 2.2,10.6 2.2,10.6 l 16.9,0 -14.8,-70.8 0,0 0,0 z"
       style="fill:#00579f" /><path
       id="path15"
       inkscape:connector-curvature="0"
       class="st0"
       d="m 115.1,37.4 -17.9,48.3 -2,-9.8 C 91.9,64.6 81.5,52.4 69.9,46.3 l 16.4,61.8 19.3,0 28.7,-70.6 -19.2,-0.1 0,0 0,0 z"
       style="fill:#00579f" /><path
       id="path17"
       inkscape:connector-curvature="0"
       class="st0"
       d="m 80.6,37.4 -29.5,0 -0.3,1.4 c 23,5.9 38.2,20 44.4,37 L 88.8,43.3 c -1,-4.4 -4.3,-5.7 -8.2,-5.9 l 0,0 z"
       style="fill:#00579f" /></g></svg>